<svg viewBox="0 0 900 26" width="900" height="26" xmlns="http://www.w3.org/2000/svg" xmlns:xlink="http://www.w3.org/1999/xlink">

  <defs>
    <filter id="rough" x="-5%" y="-30%" width="110%" height="160%">
      <feTurbulence type="fractalNoise" baseFrequency="0.9" numOctaves="2" seed="7" result="n"/>
      <feDisplacementMap in="SourceGraphic" in2="n" scale="1.6"/>
    </filter>
    <pattern id="tapeTexture" width="6" height="6" patternUnits="userSpaceOnUse" patternTransform="rotate(20)">
      <rect width="6" height="6" fill="transparent"/>
      <line x1="0" y1="0" x2="0" y2="6" stroke="#ffffff" stroke-opacity="0.15" stroke-width="1"/>
    </pattern>
    <pattern id="halftone" width="7" height="7" patternUnits="userSpaceOnUse">
      <circle cx="1.1" cy="1.1" r="1.1" fill="#20201c" opacity="0.055"/>
    </pattern>
  </defs>

  <path d="M 2.0,4.8 L 24.4,4.6 L 46.8,3.9 L 69.2,3.7 L 91.6,5.4 L 114.0,4.4 L 136.4,2.8 L 158.8,4.3 L 181.2,2.6 L 203.6,2.7 L 226.0,3.7 L 248.4,3.6 L 270.8,4.7 L 293.2,3.2 L 315.6,2.7 L 338.0,3.8 L 360.4,4.5 L 382.8,4.7 L 405.2,2.6 L 427.6,4.4 L 450.0,4.9 L 472.4,5.3 L 494.8,3.5 L 517.2,4.7 L 539.6,3.6 L 562.0,4.1 L 584.4,5.1 L 606.8,4.6 L 629.2,3.2 L 651.6,4.0 L 674.0,3.8 L 696.4,5.4 L 718.8,5.1 L 741.2,4.7 L 763.6,3.3 L 786.0,4.7 L 808.4,5.3 L 830.8,5.5 L 853.2,3.6 L 875.6,3.6 L 898.0,4.8 L 898.0,22.0 L 875.6,23.1 L 853.2,21.2 L 830.8,23.3 L 808.4,22.6 L 786.0,20.6 L 763.6,22.8 L 741.2,22.1 L 718.8,22.0 L 696.4,22.2 L 674.0,20.6 L 651.6,23.4 L 629.2,22.0 L 606.8,22.0 L 584.4,21.7 L 562.0,22.4 L 539.6,20.7 L 517.2,23.0 L 494.8,20.6 L 472.4,21.4 L 450.0,22.0 L 427.6,20.6 L 405.2,23.2 L 382.8,22.9 L 360.4,22.5 L 338.0,21.8 L 315.6,21.9 L 293.2,20.9 L 270.8,23.3 L 248.4,20.8 L 226.0,21.8 L 203.6,23.4 L 181.2,23.1 L 158.8,21.0 L 136.4,21.6 L 114.0,21.3 L 91.6,23.4 L 69.2,23.5 L 46.8,22.1 L 24.4,20.8 L 2.0,21.1 Z" fill="#ece2c8" opacity="0.9" filter="url(#rough)"/>
  <line x1="6" y1="13.0" x2="894" y2="13.0" stroke="#b5551f" stroke-width="1" stroke-dasharray="2 5" opacity="0.7"/>
  <line x1="10" y1="10.0" x2="10" y2="16.0" stroke="#b8a06b" stroke-width="1.4"/><line x1="24" y1="10.0" x2="24" y2="16.0" stroke="#b8a06b" stroke-width="1.4"/><line x1="38" y1="10.0" x2="38" y2="16.0" stroke="#b8a06b" stroke-width="1.4"/><line x1="52" y1="10.0" x2="52" y2="16.0" stroke="#b8a06b" stroke-width="1.4"/><line x1="66" y1="10.0" x2="66" y2="16.0" stroke="#b8a06b" stroke-width="1.4"/><line x1="80" y1="10.0" x2="80" y2="16.0" stroke="#b8a06b" stroke-width="1.4"/><line x1="94" y1="10.0" x2="94" y2="16.0" stroke="#b8a06b" stroke-width="1.4"/><line x1="108" y1="10.0" x2="108" y2="16.0" stroke="#b8a06b" stroke-width="1.4"/><line x1="122" y1="10.0" x2="122" y2="16.0" stroke="#b8a06b" stroke-width="1.4"/><line x1="136" y1="10.0" x2="136" y2="16.0" stroke="#b8a06b" stroke-width="1.4"/><line x1="150" y1="10.0" x2="150" y2="16.0" stroke="#b8a06b" stroke-width="1.4"/><line x1="164" y1="10.0" x2="164" y2="16.0" stroke="#b8a06b" stroke-width="1.4"/><line x1="178" y1="10.0" x2="178" y2="16.0" stroke="#b8a06b" stroke-width="1.4"/><line x1="192" y1="10.0" x2="192" y2="16.0" stroke="#b8a06b" stroke-width="1.4"/><line x1="206" y1="10.0" x2="206" y2="16.0" stroke="#b8a06b" stroke-width="1.4"/><line x1="220" y1="10.0" x2="220" y2="16.0" stroke="#b8a06b" stroke-width="1.4"/><line x1="234" y1="10.0" x2="234" y2="16.0" stroke="#b8a06b" stroke-width="1.4"/><line x1="248" y1="10.0" x2="248" y2="16.0" stroke="#b8a06b" stroke-width="1.4"/><line x1="262" y1="10.0" x2="262" y2="16.0" stroke="#b8a06b" stroke-width="1.4"/><line x1="276" y1="10.0" x2="276" y2="16.0" stroke="#b8a06b" stroke-width="1.4"/><line x1="290" y1="10.0" x2="290" y2="16.0" stroke="#b8a06b" stroke-width="1.4"/><line x1="304" y1="10.0" x2="304" y2="16.0" stroke="#b8a06b" stroke-width="1.4"/><line x1="318" y1="10.0" x2="318" y2="16.0" stroke="#b8a06b" stroke-width="1.4"/><line x1="332" y1="10.0" x2="332" y2="16.0" stroke="#b8a06b" stroke-width="1.4"/><line x1="346" y1="10.0" x2="346" y2="16.0" stroke="#b8a06b" stroke-width="1.4"/><line x1="360" y1="10.0" x2="360" y2="16.0" stroke="#b8a06b" stroke-width="1.4"/><line x1="374" y1="10.0" x2="374" y2="16.0" stroke="#b8a06b" stroke-width="1.4"/><line x1="388" y1="10.0" x2="388" y2="16.0" stroke="#b8a06b" stroke-width="1.4"/><line x1="402" y1="10.0" x2="402" y2="16.0" stroke="#b8a06b" stroke-width="1.4"/><line x1="416" y1="10.0" x2="416" y2="16.0" stroke="#b8a06b" stroke-width="1.4"/><line x1="430" y1="10.0" x2="430" y2="16.0" stroke="#b8a06b" stroke-width="1.4"/><line x1="444" y1="10.0" x2="444" y2="16.0" stroke="#b8a06b" stroke-width="1.4"/><line x1="458" y1="10.0" x2="458" y2="16.0" stroke="#b8a06b" stroke-width="1.4"/><line x1="472" y1="10.0" x2="472" y2="16.0" stroke="#b8a06b" stroke-width="1.4"/><line x1="486" y1="10.0" x2="486" y2="16.0" stroke="#b8a06b" stroke-width="1.4"/><line x1="500" y1="10.0" x2="500" y2="16.0" stroke="#b8a06b" stroke-width="1.4"/><line x1="514" y1="10.0" x2="514" y2="16.0" stroke="#b8a06b" stroke-width="1.4"/><line x1="528" y1="10.0" x2="528" y2="16.0" stroke="#b8a06b" stroke-width="1.4"/><line x1="542" y1="10.0" x2="542" y2="16.0" stroke="#b8a06b" stroke-width="1.4"/><line x1="556" y1="10.0" x2="556" y2="16.0" stroke="#b8a06b" stroke-width="1.4"/><line x1="570" y1="10.0" x2="570" y2="16.0" stroke="#b8a06b" stroke-width="1.4"/><line x1="584" y1="10.0" x2="584" y2="16.0" stroke="#b8a06b" stroke-width="1.4"/><line x1="598" y1="10.0" x2="598" y2="16.0" stroke="#b8a06b" stroke-width="1.4"/><line x1="612" y1="10.0" x2="612" y2="16.0" stroke="#b8a06b" stroke-width="1.4"/><line x1="626" y1="10.0" x2="626" y2="16.0" stroke="#b8a06b" stroke-width="1.4"/><line x1="640" y1="10.0" x2="640" y2="16.0" stroke="#b8a06b" stroke-width="1.4"/><line x1="654" y1="10.0" x2="654" y2="16.0" stroke="#b8a06b" stroke-width="1.4"/><line x1="668" y1="10.0" x2="668" y2="16.0" stroke="#b8a06b" stroke-width="1.4"/><line x1="682" y1="10.0" x2="682" y2="16.0" stroke="#b8a06b" stroke-width="1.4"/><line x1="696" y1="10.0" x2="696" y2="16.0" stroke="#b8a06b" stroke-width="1.4"/><line x1="710" y1="10.0" x2="710" y2="16.0" stroke="#b8a06b" stroke-width="1.4"/><line x1="724" y1="10.0" x2="724" y2="16.0" stroke="#b8a06b" stroke-width="1.4"/><line x1="738" y1="10.0" x2="738" y2="16.0" stroke="#b8a06b" stroke-width="1.4"/><line x1="752" y1="10.0" x2="752" y2="16.0" stroke="#b8a06b" stroke-width="1.4"/><line x1="766" y1="10.0" x2="766" y2="16.0" stroke="#b8a06b" stroke-width="1.4"/><line x1="780" y1="10.0" x2="780" y2="16.0" stroke="#b8a06b" stroke-width="1.4"/><line x1="794" y1="10.0" x2="794" y2="16.0" stroke="#b8a06b" stroke-width="1.4"/><line x1="808" y1="10.0" x2="808" y2="16.0" stroke="#b8a06b" stroke-width="1.4"/><line x1="822" y1="10.0" x2="822" y2="16.0" stroke="#b8a06b" stroke-width="1.4"/><line x1="836" y1="10.0" x2="836" y2="16.0" stroke="#b8a06b" stroke-width="1.4"/><line x1="850" y1="10.0" x2="850" y2="16.0" stroke="#b8a06b" stroke-width="1.4"/><line x1="864" y1="10.0" x2="864" y2="16.0" stroke="#b8a06b" stroke-width="1.4"/><line x1="878" y1="10.0" x2="878" y2="16.0" stroke="#b8a06b" stroke-width="1.4"/>
</svg>
